<?xml version="1.0" encoding="UTF-8" standalone="no"?>
<!DOCTYPE svg PUBLIC "-//W3C//DTD SVG 1.1//EN" "http://www.w3.org/Graphics/SVG/1.1/DTD/svg11.dtd">
<svg width="100%" height="100%" viewBox="0 0 365 125" version="1.1" xmlns="http://www.w3.org/2000/svg" xmlns:xlink="http://www.w3.org/1999/xlink" xml:space="preserve" xmlns:serif="http://www.serif.com/" style="fill-rule:evenodd;clip-rule:evenodd;stroke-linejoin:round;stroke-miterlimit:2;">
    <rect x="0" y="120.36" width="364.743" height="4.253" style="fill:rgb(227,6,19);fill-rule:nonzero;"/>
    <path d="M13.514,83.505C24.711,83.505 30.503,90.464 30.503,98.969C30.503,107.86 24.968,114.304 12.613,114.304L0,114.304L0,83.505L13.514,83.505ZM7.722,108.634L12.742,108.634C20.464,108.634 22.78,103.35 22.78,98.84C22.78,93.556 19.949,89.046 12.742,89.046L7.722,89.046L7.722,108.634Z" style="fill-rule:nonzero;"/>
    <path d="M57.53,114.304L34.878,114.304L34.878,83.505L57.273,83.505L57.273,89.175L42.601,89.175L42.601,95.618L56.629,95.618L56.629,101.288L42.601,101.288L42.601,108.634L57.53,108.634L57.53,114.304Z" style="fill-rule:nonzero;"/>
    <path d="M75.806,83.505C82.112,83.505 85.845,87.757 85.845,92.397C85.845,95.747 84.043,98.324 80.568,99.871C83.785,101.417 84.686,105.283 88.934,114.304L80.568,114.304C77.222,107.732 76.063,101.804 71.945,101.804L69.757,101.804L69.757,114.304L62.035,114.304L62.035,83.505L75.806,83.505ZM69.757,96.134L73.875,96.134C75.935,96.134 78.123,95.232 78.123,92.654C78.123,90.335 76.578,89.175 73.747,89.175L69.885,89.175L69.885,96.134L69.757,96.134Z" style="fill-rule:nonzero;"/>
    <rect x="91.508" y="83.505" width="7.722" height="30.799" style="fill-rule:nonzero;"/>
    <path d="M133.593,111.597C129.346,113.788 126.128,114.69 121.495,114.69C109.526,114.69 103.605,106.958 103.605,98.969C103.605,90.721 110.298,83.118 122.138,83.118C126.386,83.118 130.247,84.02 133.207,85.824L133.207,92.654C129.861,90.721 126.386,89.561 122.653,89.561C116.089,89.561 111.585,93.427 111.585,98.84C111.585,104.381 116.089,108.247 122.524,108.247C126.514,108.247 129.217,106.958 133.593,104.896L133.593,111.597Z" style="fill-rule:nonzero;"/>
    <path d="M168.986,114.304L161.264,114.304L161.264,101.804L145.948,101.804L145.948,114.304L138.355,114.304L138.355,83.505L145.948,83.505L145.948,95.876L161.264,95.876L161.264,83.505L168.986,83.505L168.986,114.304Z" style="fill-rule:nonzero;"/>
    <path d="M197.172,114.304L174.521,114.304L174.521,83.505L196.915,83.505L196.915,89.175L182.243,89.175L182.243,95.618L196.142,95.618L196.142,101.288L182.243,101.288L182.243,108.634L197.172,108.634L197.172,114.304Z" style="fill-rule:nonzero;"/>
    <path d="M214.933,83.505C222.14,83.505 225.101,87.757 225.101,91.237C225.101,93.814 223.427,96.134 220.853,97.422C225.229,98.582 227.417,101.675 227.417,105.283C227.417,108.762 225.487,114.304 216.606,114.304L201.677,114.304L201.677,83.505L214.933,83.505ZM209.399,95.747L213.389,95.747C216.22,95.747 217.25,94.072 217.25,92.397C217.25,90.85 216.091,89.175 213.389,89.175L209.399,89.175L209.399,95.747ZM209.399,108.634L213.775,108.634C218.022,108.634 219.438,107.474 219.438,104.897C219.438,102.706 217.507,101.417 214.804,101.417L209.399,101.417L209.399,108.634Z" style="fill-rule:nonzero;"/>
    <path d="M248.139,114.69C236.813,114.69 230.506,106.701 230.506,98.84C230.506,91.366 236.555,82.989 248.139,82.989C259.722,82.989 265.771,91.366 265.771,98.84C265.642,106.829 259.078,114.69 248.139,114.69ZM248.139,89.561C242.218,89.561 238.357,93.299 238.357,98.969C238.357,104.639 242.218,108.376 248.139,108.376C253.93,108.376 257.791,104.639 257.791,98.969C257.791,93.299 253.93,89.561 248.139,89.561Z" style="fill-rule:nonzero;"/>
    <path d="M300.263,83.505L300.263,100.902C300.263,111.082 293.313,114.561 284.947,114.561C276.066,114.561 269.631,110.438 269.631,100.902L269.631,83.505L277.353,83.505L277.353,101.159C277.353,105.541 280.571,108.247 284.947,108.247C289.065,108.247 292.798,106.185 292.798,100.644L292.798,83.505L300.263,83.505Z" style="fill-rule:nonzero;"/>
    <path d="M319.311,83.505C325.617,83.505 329.35,87.757 329.35,92.397C329.35,95.747 327.548,98.324 324.073,99.871C327.29,101.417 328.191,105.283 332.438,114.304L324.073,114.304C320.726,107.732 319.568,101.804 315.45,101.804L313.262,101.804L313.262,114.304L305.54,114.304L305.54,83.505L319.311,83.505ZM313.262,96.134L317.251,96.134C319.311,96.134 321.499,95.232 321.499,92.654C321.499,90.335 319.954,89.175 317.123,89.175L313.262,89.175L313.262,96.134Z" style="fill-rule:nonzero;"/>
    <path d="M364.099,92.397C360.238,90.464 356.377,89.561 352.645,89.561C344.279,89.561 341.319,94.716 341.319,99.226C341.319,104.639 345.566,108.247 352.001,108.247C353.932,108.247 354.833,108.118 357.149,107.216L357.149,103.608L352.645,103.608L352.645,97.938L364.743,97.938L364.743,110.567C362.426,113.015 356.763,114.69 351.872,114.69C341.19,114.69 333.597,108.118 333.597,98.969C333.597,89.561 341.19,83.118 352.13,83.118C356.763,83.118 361.139,84.149 364.228,85.696L364.228,92.397" style="fill-rule:nonzero;"/>
    <path d="M116.476,29.382C118.921,32.474 122.653,34.536 126.772,34.536C133.979,34.536 139.771,28.737 139.771,21.521C139.771,18.299 138.612,15.335 136.553,13.016C131.534,17.784 124.198,24.227 116.476,29.382Z" style="fill:rgb(148,148,154);fill-rule:nonzero;"/>
    <path d="M184.301,23.196C186.232,15.464 180.955,9.794 181.084,10.31C181.856,15.207 179.926,18.686 179.668,18.428C178.639,17.655 175.55,15.722 172.332,15.98C169.501,9.665 156.888,2.449 144.275,5.413C144.275,5.413 143.632,6.057 142.602,7.088C143.76,8.377 144.661,9.665 145.562,11.212L141.701,13.274C142.859,15.464 143.632,17.784 143.76,20.361L148.136,20.361L148.136,21.392C148.136,24.485 147.493,27.449 146.334,30.155L142.345,28.351C141.315,30.542 139.899,32.475 138.097,34.15L140.8,37.629C138.226,39.82 135.137,41.495 131.791,42.268L130.89,38.016C129.603,38.402 128.187,38.531 126.772,38.531C125.356,38.531 124.069,38.402 122.782,38.016L121.623,42.268C118.406,41.495 115.574,39.949 113.129,38.016L115.832,34.536C114.802,33.634 113.901,32.732 113.129,31.573C108.624,34.279 103.991,36.598 99.615,37.758C79.28,43.17 89.319,19.975 89.319,19.975L83.013,24.485C83.013,24.485 80.954,33.634 85.716,38.402C88.547,41.237 94.853,41.753 100.645,40.464C100.645,40.464 99.358,47.938 98.714,55.413C97.942,62.887 96.655,63.016 92.665,75.258C91.893,77.191 91.25,77.964 90.22,81.057L101.546,81.057C101.546,81.057 101.675,80.155 100.645,78.608C98.071,75 98.457,71.907 105.15,66.108C108.238,63.402 109.783,61.598 111.842,58.763C112.099,59.536 111.327,63.918 109.397,66.882C109.397,66.882 119.95,76.418 119.435,80.928L128.316,80.928C127.93,75.516 117.634,72.423 117.505,66.624C117.505,65.722 119.435,61.469 120.98,58.505C128.573,61.469 137.325,64.691 142.473,62.371C141.572,67.526 137.196,74.871 136.167,80.928L147.493,80.928C147.493,80.928 147.493,79.382 146.077,78.093C143.117,75.129 144.146,70.232 150.453,64.562C151.74,63.402 153.67,61.727 155.73,60.052C161.135,63.016 161.779,63.789 161.135,65.078C159.848,67.655 156.63,68.943 154.443,68.299C154.443,68.299 150.067,72.036 149.552,73.454C149.552,73.454 153.67,74.098 156.502,73.454C159.462,72.809 167.441,67.139 168.085,64.82C168.342,63.789 163.194,57.732 161.65,55.413C164.481,53.222 167.956,51.16 167.956,51.16L173.877,55.413C175.421,55.284 182.114,51.933 182.114,51.933C182.114,51.933 185.589,37.5 187.519,33.763C188.42,32.088 184.301,23.196 184.301,23.196ZM154.185,27.706C157.918,30.026 164.739,31.186 168.986,27.964C170.273,26.933 171.303,25.645 171.946,24.227C173.233,25.129 174.134,26.16 174.906,27.191C174.134,28.609 173.362,30.284 170.788,31.83C164.224,35.825 154.571,31.573 154.185,27.706ZM173.619,42.011C173.619,42.011 173.104,39.176 170.273,37.5L172.203,36.727C175.55,38.66 176.065,41.753 176.193,41.882L173.619,42.011Z" style="fill:rgb(148,148,154);fill-rule:nonzero;"/>
    <path d="M113.773,21.392C113.773,14.175 119.565,8.376 126.772,8.376C130.633,8.376 133.979,10.052 136.425,12.629C136.553,12.758 136.553,12.887 136.682,12.887C139.256,10.438 141.315,8.376 142.602,7.088C142.474,6.959 142.345,6.83 142.216,6.701C141.058,5.541 139.9,4.51 138.484,3.608L136.425,7.474C134.623,6.186 132.435,5.283 130.118,4.768L130.891,0.515C129.604,0.129 128.188,0 126.772,0C124.842,0 123.04,0.258 121.238,0.773L122.139,5.026C119.951,5.67 117.892,6.701 116.09,8.119L113.387,4.639C110.942,6.572 108.882,9.149 107.467,11.985L111.328,14.046C110.427,15.979 109.783,18.17 109.655,20.361L105.279,20.232L105.279,21.263C105.279,24.356 105.922,27.32 107.081,29.897L110.942,28.093C111.457,29.252 112.1,30.412 112.872,31.443C114.031,30.799 115.189,30.026 116.219,29.252C114.803,27.191 113.773,24.484 113.773,21.392Z" style="fill:rgb(148,148,154);fill-rule:nonzero;"/>
</svg>
