<?xml version="1.0" encoding="UTF-8" standalone="no"?>
<svg
   xmlns:dc="http://purl.org/dc/elements/1.1/"
   xmlns:cc="http://creativecommons.org/ns#"
   xmlns:rdf="http://www.w3.org/1999/02/22-rdf-syntax-ns#"
   xmlns:svg="http://www.w3.org/2000/svg"
   xmlns="http://www.w3.org/2000/svg"
   xmlns:sodipodi="http://sodipodi.sourceforge.net/DTD/sodipodi-0.dtd"
   xmlns:inkscape="http://www.inkscape.org/namespaces/inkscape"
   viewBox="0 0 486.55893 145.93704"
   height="145.93704"
   width="486.55893"
   xml:space="preserve"
   id="svg2"
   version="1.1"
   sodipodi:docname="logo-en-color.svg"
   inkscape:version="1.0.1 (3bc2e813f5, 2020-09-07)"><sodipodi:namedview
     pagecolor="#ffffff"
     bordercolor="#666666"
     borderopacity="1"
     objecttolerance="10"
     gridtolerance="10"
     guidetolerance="10"
     inkscape:pageopacity="0"
     inkscape:pageshadow="2"
     inkscape:window-width="1920"
     inkscape:window-height="1017"
     id="namedview59"
     showgrid="false"
     inkscape:zoom="1.5225295"
     inkscape:cx="243.25999"
     inkscape:cy="73.00024"
     inkscape:window-x="1912"
     inkscape:window-y="-8"
     inkscape:window-maximized="1"
     inkscape:current-layer="svg2" /><metadata
     id="metadata8"><rdf:RDF><cc:Work
         rdf:about=""><dc:format>image/svg+xml</dc:format><dc:type
           rdf:resource="http://purl.org/dc/dcmitype/StillImage" /></cc:Work></rdf:RDF></metadata><defs
     id="defs6"><clipPath
       id="clipPath18"
       clipPathUnits="userSpaceOnUse"><path
         id="path16"
         d="M 0,327.1 H 598.018 V 0 H 0 Z" /></clipPath><clipPath
       id="clipPath28"
       clipPathUnits="userSpaceOnUse"><path
         id="path26"
         d="M 116.564,109.415 H 233.143 V 218.301 H 116.564 Z" /></clipPath><clipPath
       id="clipPath52"
       clipPathUnits="userSpaceOnUse"><path
         id="path50"
         d="M 0,327.1 H 598.018 V 0 H 0 Z" /></clipPath></defs><g
     transform="matrix(1.3333333,0,0,-1.3333333,-155.41866,291.0669)"
     id="g10"><g
       id="g12"><g
         clip-path="url(#clipPath18)"
         id="g14"><path
           id="path20"
           style="fill:#ac0066;fill-opacity:1;fill-rule:nonzero;stroke:none"
           d="m 266.331,132.66 h 9.301 v 61.482 h -9.301 z m 4.591,85.64 c -1.852,0 -3.383,-0.604 -4.591,-1.812 -1.208,-1.208 -1.812,-2.738 -1.812,-4.59 0,-1.852 0.604,-3.402 1.812,-4.65 1.208,-1.248 2.739,-1.873 4.591,-1.873 1.852,0 3.402,0.625 4.651,1.873 1.248,1.248 1.872,2.798 1.872,4.65 0,1.852 -0.624,3.382 -1.872,4.59 -1.249,1.208 -2.799,1.812 -4.651,1.812 m 46.624,-31.285 c 6.683,0 12.259,-2.254 16.729,-6.764 4.47,-4.509 6.703,-10.106 6.703,-16.789 0,-6.765 -2.233,-12.402 -6.703,-16.911 -4.47,-4.509 -10.046,-6.764 -16.729,-6.764 -6.604,0 -12.119,2.255 -16.548,6.764 -4.429,4.509 -6.644,10.146 -6.644,16.911 0,6.683 2.215,12.28 6.644,16.789 4.429,4.51 9.944,6.764 16.548,6.764 m 31.888,30.198 h -9.059 v -34.788 c -2.576,4.027 -5.959,7.187 -10.147,9.482 -4.186,2.295 -8.857,3.443 -14.01,3.443 -8.537,0 -15.825,-3.12 -21.864,-9.361 -6.04,-6.241 -9.059,-13.831 -9.059,-22.769 0,-8.938 2.96,-16.468 8.878,-22.588 5.919,-6.119 13.145,-9.18 21.681,-9.18 5.316,0 10.147,1.229 14.495,3.685 4.348,2.455 7.851,5.858 10.509,10.206 l 1.087,-12.683 h 7.489 z m 71.144,-54.355 0.241,2.295 c 0,8.294 -2.919,15.4 -8.757,21.319 -5.838,5.919 -12.864,8.878 -21.078,8.878 -9.098,0 -16.79,-3.1 -23.07,-9.301 -6.281,-6.2 -9.421,-13.81 -9.421,-22.829 0,-9.019 3.079,-16.568 9.239,-22.648 6.16,-6.08 13.83,-9.12 23.01,-9.12 3.624,0 7.067,0.524 10.328,1.571 3.262,1.046 5.858,2.214 7.791,3.502 1.933,1.289 3.704,2.78 5.316,4.47 1.61,1.691 2.636,2.858 3.08,3.503 0.442,0.645 0.785,1.167 1.025,1.57 l -5.797,4.711 -0.724,-1.208 c -0.484,-0.724 -1.309,-1.651 -2.476,-2.778 -1.169,-1.128 -2.537,-2.255 -4.107,-3.383 -1.571,-1.127 -3.605,-2.073 -6.1,-2.838 -2.496,-0.764 -5.114,-1.148 -7.852,-1.148 -6.764,0 -12.381,2.235 -16.85,6.704 -4.47,4.47 -6.744,10.046 -6.824,16.73 z m -29.715,25.365 c 5.154,0 9.744,-1.811 13.771,-5.435 4.027,-3.624 6.441,-8.133 7.248,-13.529 h -43.847 c 0.966,5.557 3.562,10.106 7.79,13.65 4.228,3.543 9.24,5.314 15.038,5.314 m 89.384,5.919 h -10.75 l -20.052,-23.916 -19.809,23.916 h -11.234 l 25.245,-30.197 -26.453,-31.285 h 10.75 l 21.26,25.366 21.017,-25.366 h 11.234 l -26.453,31.647 z" /></g></g><g
       id="g22"><g
         clip-path="url(#clipPath28)"
         id="g24"><g
           transform="translate(162.2566,150.4697)"
           id="g30"><path
             id="path32"
             style="fill:#ac0066;fill-opacity:1;fill-rule:nonzero;stroke:none"
             d="M 0,0 V 7.517 L -39.856,-17.83 c -5.87,-3.732 -7.602,-11.517 -3.869,-17.387 2.4,-3.773 6.476,-5.838 10.64,-5.838 2.312,0 4.652,0.637 6.747,1.969 l 38.527,24.501 -6.252,3.894 C 2.244,-8.392 0,-4.35 0,0" /></g><g
           transform="translate(187.4475,176.6445)"
           id="g34"><path
             id="path36"
             style="fill:#ac0066;fill-opacity:1;fill-rule:nonzero;stroke:none"
             d="m 0,0 v -6.392 l 39.756,24.759 c 5.905,3.678 7.71,11.446 4.033,17.35 -3.677,5.904 -11.446,7.711 -17.35,4.033 L -13.003,15.186 -5.836,10.628 C -2.201,8.317 0,4.308 0,0" /></g><g
           transform="translate(168.1936,187.9364)"
           id="g38"><path
             id="path40"
             style="fill:#01884d;fill-opacity:1;fill-rule:nonzero;stroke:none"
             d="m 0,0 6.252,3.894 -38.527,24.5 c -5.869,3.732 -13.653,2.001 -17.386,-3.869 -3.734,-5.87 -2.001,-13.654 3.869,-17.387 l 39.855,-25.346 v 7.516 C -5.937,-6.341 -3.693,-2.299 0,0" /></g><g
           transform="translate(227.2039,132.703)"
           id="g42"><path
             id="path44"
             style="fill:#01884d;fill-opacity:1;fill-rule:nonzero;stroke:none"
             d="m 0,0 -39.756,24.76 v -6.392 c 0,-4.308 -2.201,-8.317 -5.836,-10.629 l -7.166,-4.557 39.441,-24.564 c 2.072,-1.291 4.373,-1.906 6.647,-1.906 4.205,0 8.316,2.106 10.703,5.939 C 7.71,-11.445 5.905,-3.677 0,0" /></g></g></g><g
       id="g46"><g
         clip-path="url(#clipPath52)"
         id="g48"><g
           transform="translate(271.3045,120.0097)"
           id="g54"><path
             id="path56"
             style="fill:#ac0066;fill-opacity:1;fill-rule:nonzero;stroke:none"
             d="M 0,0 C 2.744,0 4.093,-1.705 4.093,-1.705 L 2.791,-2.838 c 0,0 -0.962,1.195 -2.822,1.195 -2.201,0 -3.876,-1.707 -3.876,-3.939 0,-2.232 1.675,-3.938 3.876,-3.938 1.953,0 2.976,1.334 2.976,1.35 l 1.241,-1.133 c 0,0 -1.38,-1.859 -4.248,-1.859 -3.194,0 -5.627,2.418 -5.627,5.551 C -5.689,-2.48 -3.194,0 0,0" /></g><g
           transform="translate(281.4099,113.1269)"
           id="g58"><path
             id="path60"
             style="fill:#ac0066;fill-opacity:1;fill-rule:nonzero;stroke:none"
             d="M 0,0 H 3.798 L 1.907,4.682 Z M 7.379,-4.125 H 5.426 L 4.325,-1.412 H -0.496 L -1.597,-4.125 H -3.473 L 1.069,6.729 h 1.784 z" /></g><g
           transform="translate(293.949,118.3359)"
           id="g62"><path
             id="path64"
             style="fill:#ac0066;fill-opacity:1;fill-rule:nonzero;stroke:none"
             d="m 0,0 v -3.953 h 2.682 c 1.364,0 2.201,0.836 2.201,1.984 C 4.883,-0.838 4.046,0 2.682,0 Z m -1.783,1.52 h 4.682 c 2.248,0 3.768,-1.413 3.768,-3.413 0,-1.564 -0.978,-2.804 -2.497,-3.224 L 7.132,-9.334 H 5.038 L 2.294,-5.35 H 0 v -3.984 h -1.783 z" /></g><path
           id="path66"
           style="fill:#ac0066;fill-opacity:1;fill-rule:nonzero;stroke:none"
           d="m 304.923,119.855 h 1.846 v -10.854 h -1.846 z" /><g
           transform="translate(313.2937,117.203)"
           id="g68"><path
             id="path70"
             style="fill:#ac0066;fill-opacity:1;fill-rule:nonzero;stroke:none"
             d="M 0,0 V -8.201 H -1.752 V 2.652 H 0.107 L 5.969,-5.41 V 2.652 H 7.705 V -8.201 H 5.969 Z" /></g><g
           transform="translate(336.034,114.2577)"
           id="g72"><path
             id="path74"
             style="fill:#ac0066;fill-opacity:1;fill-rule:nonzero;stroke:none"
             d="m 0,0 c -0.016,-3.055 -2.279,-5.41 -5.334,-5.41 -3.209,0 -5.627,2.418 -5.627,5.551 0,3.13 2.481,5.611 5.69,5.611 2.744,0 4.062,-1.629 4.062,-1.629 l -1.24,-1.254 c 0,0 -0.977,1.24 -2.854,1.24 -2.217,0 -3.875,-1.691 -3.875,-3.955 0,-2.246 1.658,-3.953 3.875,-3.953 1.768,0 3.178,1.133 3.457,2.885 h -3.519 v 1.316 h 5.349 C -0.016,0.402 0,0.201 0,0" /></g><g
           transform="translate(347.8582,113.3437)"
           id="g76"><path
             id="path78"
             style="fill:#ac0066;fill-opacity:1;fill-rule:nonzero;stroke:none"
             d="M 0,0 V -4.342 H -1.783 V 6.512 H 5.814 V 4.961 H 0 V 1.504 H 5.039 V 0 Z" /></g><g
           transform="translate(366.3504,114.4277)"
           id="g80"><path
             id="path82"
             style="fill:#ac0066;fill-opacity:1;fill-rule:nonzero;stroke:none"
             d="m 0,0 c 0,2.232 -1.658,3.939 -3.875,3.939 -2.201,0 -3.877,-1.707 -3.877,-3.939 0,-2.232 1.676,-3.938 3.877,-3.938 C -1.658,-3.938 0,-2.232 0,0 m 1.783,0.031 c 0,-3.131 -2.48,-5.611 -5.689,-5.611 -3.194,0 -5.627,2.418 -5.627,5.551 0,3.131 2.494,5.611 5.689,5.611 3.209,0 5.627,-2.418 5.627,-5.551" /></g><g
           transform="translate(373.991,118.3359)"
           id="g84"><path
             id="path86"
             style="fill:#ac0066;fill-opacity:1;fill-rule:nonzero;stroke:none"
             d="m 0,0 v -3.953 h 2.682 c 1.365,0 2.201,0.836 2.201,1.984 C 4.883,-0.838 4.047,0 2.682,0 Z m -1.783,1.52 h 4.681 c 2.248,0 3.768,-1.413 3.768,-3.413 0,-1.564 -0.977,-2.804 -2.496,-3.224 L 7.131,-9.334 H 5.039 L 2.295,-5.35 H 0 v -3.984 h -1.783 z" /></g><g
           transform="translate(390.8543,109.0019)"
           id="g88"><path
             id="path90"
             style="fill:#ac0066;fill-opacity:1;fill-rule:nonzero;stroke:none"
             d="M 0,0 V 10.854 H 7.752 V 9.303 H 1.783 V 6.342 H 6.977 V 4.885 H 1.783 V 1.551 H 7.906 V 0 Z" /></g><g
           transform="translate(404.5887,117.203)"
           id="g92"><path
             id="path94"
             style="fill:#ac0066;fill-opacity:1;fill-rule:nonzero;stroke:none"
             d="M 0,0 V -8.201 H -1.752 V 2.652 H 0.107 L 5.967,-5.41 V 2.652 H 7.703 V -8.201 H 5.967 Z" /></g><g
           transform="translate(416.9871,109.0019)"
           id="g96"><path
             id="path98"
             style="fill:#ac0066;fill-opacity:1;fill-rule:nonzero;stroke:none"
             d="M 0,0 V 10.854 H 7.75 V 9.303 H 1.781 V 6.342 H 6.975 V 4.885 H 1.781 V 1.551 H 7.906 V 0 Z" /></g><g
           transform="translate(430.7508,118.3359)"
           id="g100"><path
             id="path102"
             style="fill:#ac0066;fill-opacity:1;fill-rule:nonzero;stroke:none"
             d="m 0,0 v -3.953 h 2.684 c 1.363,0 2.201,0.836 2.201,1.984 C 4.885,-0.838 4.047,0 2.684,0 Z M -1.781,1.52 H 2.9 c 2.248,0 3.768,-1.413 3.768,-3.413 0,-1.564 -0.979,-2.804 -2.496,-3.224 L 7.133,-9.334 H 5.039 L 2.295,-5.35 H 0 v -3.984 h -1.781 z" /></g><g
           transform="translate(451.9871,114.2577)"
           id="g104"><path
             id="path106"
             style="fill:#ac0066;fill-opacity:1;fill-rule:nonzero;stroke:none"
             d="m 0,0 c -0.016,-3.055 -2.277,-5.41 -5.332,-5.41 -3.209,0 -5.627,2.418 -5.627,5.551 0,3.13 2.48,5.611 5.689,5.611 2.745,0 4.061,-1.629 4.061,-1.629 l -1.24,-1.254 c 0,0 -0.977,1.24 -2.852,1.24 -2.217,0 -3.877,-1.691 -3.877,-3.955 0,-2.246 1.66,-3.953 3.877,-3.953 1.768,0 3.178,1.133 3.457,2.885 h -3.519 v 1.316 h 5.347 C -0.016,0.402 0,0.201 0,0" /></g><path
           id="path108"
           style="fill:#ac0066;fill-opacity:1;fill-rule:nonzero;stroke:none"
           d="m 456.139,119.855 h 1.846 v -10.854 h -1.846 z" /><g
           transform="translate(462.7586,109.0019)"
           id="g110"><path
             id="path112"
             style="fill:#ac0066;fill-opacity:1;fill-rule:nonzero;stroke:none"
             d="M 0,0 V 10.854 H 7.75 V 9.303 H 1.781 V 6.342 H 6.975 V 4.885 H 1.781 V 1.551 H 7.906 V 0 Z" /></g><g
           transform="translate(481.4832,111.9784)"
           id="g114"><path
             id="path116"
             style="fill:#ac0066;fill-opacity:1;fill-rule:nonzero;stroke:none"
             d="m 0,0 c 0,-1.752 -1.441,-3.131 -3.766,-3.131 -2.621,0 -3.984,1.551 -3.984,1.551 l 1.068,1.146 c 0,0 1.18,-1.224 3.039,-1.224 1.102,0 1.831,0.635 1.831,1.457 0,0.914 -0.622,1.504 -2.682,2.248 -1.598,0.59 -2.715,1.551 -2.715,3.039 0,1.658 1.428,2.945 3.613,2.945 2.295,0 3.52,-1.318 3.52,-1.318 l -1.07,-1.162 c 0,0 -0.915,1.008 -2.418,1.008 -1.225,0 -1.815,-0.698 -1.815,-1.319 0,-0.806 0.559,-1.318 2.186,-1.89 C -1.363,2.713 0,1.721 0,0" /></g></g></g></g></svg>
