<?xml version="1.0" encoding="utf-8"?>
<!-- Generator: Adobe Illustrator 25.0.0, SVG Export Plug-In . SVG Version: 6.00 Build 0)  -->
<svg version="1.1" id="Calque_2" xmlns="http://www.w3.org/2000/svg" xmlns:xlink="http://www.w3.org/1999/xlink" x="0px" y="0px"
	 viewBox="0 0 714.1 643.9" style="enable-background:new 0 0 714.1 643.9;" xml:space="preserve">
<style type="text/css">
	.st0{fill-rule:evenodd;clip-rule:evenodd;fill:#E31D3C;}
	.st1{fill-rule:evenodd;clip-rule:evenodd;fill:#13100D;}
</style>
<g>
	<path class="st0" d="M304.8,327.7c16.1,7.8,33.6,11.8,52.3,11.8c18.5,0,35.9-3.9,52.3-11.8c-13.9-21.4-30.5-40.5-52.3-40.5
		C335.3,287.2,318.7,306.4,304.8,327.7 M417.4,252.2c12-19.1,35.8-24.3,61.4-25.4c-2.9,37.8-22.9,70.7-52.3,91
		C414.8,295.1,407,272,417.4,252.2 M488.2,374.8c-22.4-0.9-38.7-18.8-52.4-40.2c15.9-7.7,33.6-11.7,52.4-11.7
		c18.6,0,36.4,4.2,52.3,11.7C526.8,356,510.6,373.9,488.2,374.8 M428,409.3c-12,19.1-36,24.4-61.5,25.4c2-21.1,9-40.7,20.3-57.7
		c8.6-13,19.8-24.1,32.6-32.9C431,366.6,438.6,389.7,428,409.3 M550,318c-30.6-21.2-49.1-53.8-52.4-91.2
		c25.7,1.1,49.5,6.3,61.5,25.4C569.5,272,561.7,295.3,550,318 M296.7,252.2c-12-19.1-35.8-24.3-61.4-25.5
		c2.9,37.8,22.8,70.8,52.3,91.1C299.3,295.1,306.9,272,296.7,252.2 M225.8,374.7c22.4-0.8,38.9-18.8,52.6-40.1
		c-15.9-7.7-33.7-11.9-52.4-11.9s-36.5,4.2-52.3,11.8C187.4,355.8,203.6,373.8,225.8,374.7 M286,409.3c12,19.1,35.9,24.4,61.5,25.4
		c-2-21.1-9-40.7-20.1-57.7c-8.6-13-19.8-24.1-32.6-32.9C283.1,366.6,275.5,389.7,286,409.3 M164.1,317.9
		c30.5-21.1,49.1-53.8,52.4-91.2c-25.7,1.1-49.7,6.3-61.6,25.4C144.6,271.9,152.4,295.1,164.1,317.9 M304.8,107.1
		c16.1-7.8,33.8-11.8,52.3-11.8c18.6,0,36.1,3.9,52.3,11.8c-13.7,21.5-30.5,40.5-52.3,40.5C335.3,147.5,318.7,128.5,304.8,107.1
		 M417.4,182.5c12,19.3,35.8,24.5,61.4,25.7c-2.9-37.8-22.8-70.8-52.3-91.2C414.8,139.8,407.2,162.8,417.4,182.5 M488.4,60.2
		c-22.4,0.8-38.9,18.7-52.6,40.1c15.9,7.6,33.6,11.9,52.4,11.9c18.8,0,36.4-4.2,52.3-11.7C526.8,79,510.8,61,488.4,60.2 M428.1,25.5
		C416.2,6.3,392.1,1.2,366.6,0c2,21.3,9,40.9,20.1,57.8c8.6,12.9,19.8,24.2,32.6,32.9C431,68.1,438.6,45.2,428.1,25.5 M550,116.9
		c-30.5,21.1-49.1,53.9-52.4,91.3c25.7-1.2,49.5-6.3,61.5-25.6C569.5,162.9,561.7,139.6,550,116.9 M296.7,182.5
		c-12,19.3-35.8,24.4-61.4,25.6c2.9-37.8,23-70.8,52.3-91.1C299.3,139.8,307.1,162.8,296.7,182.5 M225.9,60.1
		c22.2,0.9,38.7,18.8,52.4,40.2c-15.9,7.5-33.7,11.7-52.4,11.7c-18.6,0-36.4-4.2-52.3-11.7C187.4,78.9,203.6,60.8,225.9,60.1
		 M286.2,25.5c12-19.1,35.9-24.3,61.5-25.5c-2,21.3-9,40.9-20.2,57.8c-8.6,12.9-19.8,24.2-32.6,32.9
		C283.2,68.1,275.6,45.2,286.2,25.5 M164.2,116.8c30.5,21.1,49,53.9,52.3,91.3c-25.7-1.2-49.7-6.3-61.6-25.6
		C144.6,162.8,152.4,139.5,164.2,116.8"/>
	<path class="st1" d="M42.1,641.6L0,494.7l29.5,0c0,0,24.4,95.7,27.7,108.6c3.3-13,27.8-108.6,27.8-108.6h29.6L72.3,641.6H42.1z
		 M233.5,641.7h-27.3v-129h-13.6v-18h15.8h43.4c35.3,0,51.7,21.1,51.7,46.9c0,25.9-18.9,46.9-51.8,46.9h-18.1V641.7z M276.1,541.6
		c0-12.3-7.1-22.4-23.8-22.4h-18.8V564h18.8C269.1,564,276.1,554.1,276.1,541.6 M463.5,585.5l-0.1,56.3h-27.3l0.1-129l-11.7,0v-18
		h15.8h46.8c32.3,0,48.3,20.3,48.2,45.3c0,17.4-9.3,32.6-24.7,40.2l27.4,61.4h-29.7l-25.1-56.3H463.5z M508,540.7
		c0-11.8-6.4-21.4-24.6-21.4h-19.8V562h19.8C501.7,562,508,552.4,508,540.7 M370.6,494.8l46.3,147h-28l-8.5-30.9h-46.5l-8.6,30.9
		h-28l46.3-147H370.6z M357.2,529.1h-0.4l-16.4,58.2h33.2L357.2,529.1z M685.9,603c0-8.8-6.2-15.7-25.6-24.6
		c-24.5-11.4-39.5-22.4-39.4-46.5c0-21.9,18-39.1,45.5-39.1c20,0,32.4,7,44,20.2l-18.4,17c-9.5-9.5-15.2-12.8-26.4-12.8
		c-9.9,0-16.7,5.8-16.7,13.4c0,9.3,6.5,14.9,24.4,23.6c28.5,13.7,40.8,23.7,40.8,48.2c0,24.2-18.6,41.7-48.9,41.6
		c-21.8,0-37-10-48.2-22.3L636,603c9.9,11.2,20.9,16.6,30.9,16.6C679.6,619.6,685.9,613.2,685.9,603 M564.5,494.8h27.8v147h-27.8
		V494.8z M136.3,494.7h27.7l-0.1,147l-27.8,0L136.3,494.7z"/>
</g>
</svg>
